# MagicaVoxel @ Ephtracy

# group
g mp5

# material
mtllib mp5.mtl
usemtl palette

# normals
vn -1 0 0
vn 1 0 0
vn 0 0 1
vn 0 0 -1
vn 0 -1 0
vn 0 1 0

# texcoords
vt 0.0644531 0.5
vt 0.986328 0.5
vt 0.990234 0.5
vt 0.994141 0.5

# verts
v -28 22 1
v -28 22 -2
v -28 23 -0
v -28 23 -1
v -28 24 -0
v -28 24 -1
v -28 25 1
v -28 25 -2
v -25 23 -0
v -25 23 -1
v -25 24 -0
v -25 24 -1
v -24 18 1
v -24 18 -2
v -24 21 1
v -24 21 -2
v -24 25 1
v -24 25 -2
v -24 29 1
v -24 29 -0
v -24 29 -1
v -24 29 -2
v -24 30 -0
v -24 30 -1
v -20 19 2
v -20 19 1
v -20 19 -2
v -20 19 -3
v -20 21 1
v -20 21 -2
v -20 22 1
v -20 22 -2
v -20 25 1
v -20 25 -2
v -20 26 1
v -20 26 -2
v -20 27 2
v -20 27 1
v -20 27 -2
v -20 27 -3
v 1 0 1
v 1 0 -2
v 1 3 1
v 1 3 -2
v 2 3 1
v 2 3 -2
v 2 6 1
v 2 6 -2
v 3 6 1
v 3 6 -2
v 3 9 1
v 3 9 -2
v 4 9 1
v 4 9 -2
v 4 12 1
v 4 12 -2
v 5 12 1
v 5 12 -2
v 5 15 1
v 5 15 -2
v 6 15 1
v 6 15 -2
v 6 19 1
v 6 19 -2
v 19 13 1
v 19 13 -2
v 19 16 1
v 19 16 -2
v 24 12 1
v 24 12 -2
v 24 13 1
v 24 13 -2
v 24 14 1
v 24 14 -2
v 24 16 1
v 24 16 -2
v 25 9 1
v 25 9 -2
v 25 12 1
v 25 12 -2
v 26 6 1
v 26 6 -2
v 26 9 1
v 26 9 -2
v 30 18 1
v 30 18 -2
v 30 21 1
v 30 21 -2
v 30 24 1
v 30 24 -2
v 30 25 1
v 30 25 -2
v 31 16 1
v 31 16 -2
v 31 18 1
v 31 18 -2
v -23 28 1
v -23 28 -2
v -23 29 1
v -23 29 -0
v -23 29 -1
v -23 29 -2
v -23 30 -0
v -23 30 -1
v -22 25 1
v -22 25 -2
v -22 26 1
v -22 26 -2
v 4 18 1
v 4 18 -2
v 4 19 1
v 4 19 -2
v 6 0 1
v 6 0 -2
v 6 3 1
v 6 3 -2
v 7 3 1
v 7 3 -2
v 7 6 1
v 7 6 -2
v 8 6 1
v 8 6 -2
v 8 9 1
v 8 9 -2
v 9 9 1
v 9 9 -2
v 9 12 1
v 9 12 -2
v 10 12 1
v 10 12 -2
v 10 14 1
v 10 14 -2
v 11 14 1
v 11 14 -2
v 11 16 1
v 11 16 -2
v 20 14 1
v 20 14 -2
v 20 16 1
v 20 16 -1
v 20 16 -2
v 24 27 1
v 24 27 -2
v 24 28 1
v 24 28 -2
v 26 26 2
v 26 26 -3
v 26 27 2
v 26 27 -3
v 27 25 2
v 27 25 -3
v 27 26 2
v 27 26 -3
v 28 16 1
v 28 16 -2
v 28 19 2
v 28 19 1
v 28 19 -2
v 28 19 -3
v 28 21 1
v 28 21 -2
v 28 24 1
v 28 24 -2
v 28 25 2
v 28 25 -3
v 29 13 1
v 29 13 -2
v 29 16 1
v 29 16 -2
v 30 10 1
v 30 10 -2
v 30 13 1
v 30 13 -2
v 31 6 1
v 31 6 -2
v 31 10 1
v 31 10 -2
v 32 16 1
v 32 16 -2
v 32 25 1
v 32 25 -2
v -20 19 2
v -20 27 2
v -17 23 2
v -17 25 2
v 3 23 2
v 3 25 2
v 26 26 2
v 26 27 2
v 27 25 2
v 27 26 2
v 28 19 2
v 28 25 2
v -28 22 1
v -28 25 1
v -24 18 1
v -24 21 1
v -24 25 1
v -24 29 1
v -23 28 1
v -23 29 1
v -22 25 1
v -22 26 1
v -20 19 1
v -20 21 1
v -20 22 1
v -20 25 1
v -20 26 1
v -20 27 1
v 1 0 1
v 1 3 1
v 2 3 1
v 2 6 1
v 3 6 1
v 3 9 1
v 4 9 1
v 4 12 1
v 4 18 1
v 4 19 1
v 5 12 1
v 5 15 1
v 6 0 1
v 6 3 1
v 6 15 1
v 6 19 1
v 7 3 1
v 7 6 1
v 7 17 1
v 7 19 1
v 8 6 1
v 8 9 1
v 9 9 1
v 9 12 1
v 9 16 1
v 9 17 1
v 10 12 1
v 10 14 1
v 10 16 1
v 10 19 1
v 11 14 1
v 11 16 1
v 19 13 1
v 19 16 1
v 20 14 1
v 20 16 1
v 24 12 1
v 24 13 1
v 24 14 1
v 24 16 1
v 24 27 1
v 24 28 1
v 25 9 1
v 25 12 1
v 26 6 1
v 26 9 1
v 28 16 1
v 28 19 1
v 28 21 1
v 28 24 1
v 29 13 1
v 29 16 1
v 30 10 1
v 30 13 1
v 30 18 1
v 30 21 1
v 30 24 1
v 30 25 1
v 31 6 1
v 31 10 1
v 31 16 1
v 31 18 1
v 32 16 1
v 32 25 1
v -24 29 -0
v -24 30 -0
v -23 29 -0
v -23 30 -0
v -28 23 -1
v -28 24 -1
v -25 23 -1
v -25 24 -1
v -28 23 -0
v -28 24 -0
v -25 23 -0
v -25 24 -0
v -24 29 -1
v -24 30 -1
v -23 29 -1
v -23 30 -1
v -28 22 -2
v -28 25 -2
v -24 18 -2
v -24 21 -2
v -24 25 -2
v -24 29 -2
v -23 28 -2
v -23 29 -2
v -22 25 -2
v -22 26 -2
v -20 19 -2
v -20 21 -2
v -20 22 -2
v -20 25 -2
v -20 26 -2
v -20 27 -2
v 1 0 -2
v 1 3 -2
v 2 3 -2
v 2 6 -2
v 3 6 -2
v 3 9 -2
v 4 9 -2
v 4 12 -2
v 4 18 -2
v 4 19 -2
v 5 12 -2
v 5 15 -2
v 6 0 -2
v 6 3 -2
v 6 15 -2
v 6 19 -2
v 7 3 -2
v 7 6 -2
v 7 17 -2
v 7 19 -2
v 8 6 -2
v 8 9 -2
v 9 9 -2
v 9 12 -2
v 9 16 -2
v 9 17 -2
v 10 12 -2
v 10 14 -2
v 10 16 -2
v 10 19 -2
v 11 14 -2
v 11 16 -2
v 15 17 -2
v 15 19 -2
v 19 13 -2
v 19 16 -2
v 19 17 -2
v 19 18 -2
v 20 14 -2
v 20 16 -2
v 21 16 -2
v 21 17 -2
v 24 12 -2
v 24 13 -2
v 24 14 -2
v 24 16 -2
v 24 18 -2
v 24 19 -2
v 24 27 -2
v 24 28 -2
v 25 9 -2
v 25 12 -2
v 26 6 -2
v 26 9 -2
v 28 16 -2
v 28 19 -2
v 28 21 -2
v 28 24 -2
v 29 13 -2
v 29 16 -2
v 30 10 -2
v 30 13 -2
v 30 18 -2
v 30 21 -2
v 30 24 -2
v 30 25 -2
v 31 6 -2
v 31 10 -2
v 31 16 -2
v 31 18 -2
v 32 16 -2
v 32 25 -2
v -20 19 -3
v -20 27 -3
v -17 23 -3
v -17 25 -3
v 3 23 -3
v 3 25 -3
v 26 26 -3
v 26 27 -3
v 27 25 -3
v 27 26 -3
v 28 19 -3
v 28 25 -3
v 1 0 1
v 6 0 1
v 1 0 -2
v 6 0 -2
v 6 3 1
v 7 3 1
v 6 3 -2
v 7 3 -2
v 7 6 1
v 8 6 1
v 26 6 1
v 31 6 1
v 7 6 -2
v 8 6 -2
v 26 6 -2
v 31 6 -2
v 8 9 1
v 9 9 1
v 25 9 1
v 26 9 1
v 8 9 -2
v 9 9 -2
v 25 9 -2
v 26 9 -2
v 9 12 1
v 10 12 1
v 24 12 1
v 25 12 1
v 9 12 -2
v 10 12 -2
v 24 12 -2
v 25 12 -2
v 19 13 1
v 24 13 1
v 19 13 -2
v 24 13 -2
v 10 14 1
v 11 14 1
v 10 14 -2
v 11 14 -2
v 11 16 1
v 19 16 1
v 20 16 1
v 24 16 1
v 31 16 1
v 32 16 1
v 20 16 -1
v 21 16 -1
v 11 16 -2
v 19 16 -2
v 20 16 -2
v 21 16 -2
v 24 16 -2
v 31 16 -2
v 32 16 -2
v -24 18 1
v 4 18 1
v 30 18 1
v 31 18 1
v -24 18 -2
v 4 18 -2
v 30 18 -2
v 31 18 -2
v -20 19 2
v 28 19 2
v -20 19 1
v 4 19 1
v 6 19 1
v 7 19 1
v 10 19 1
v 28 19 1
v -20 19 -2
v 4 19 -2
v 6 19 -2
v 7 19 -2
v 10 19 -2
v 15 19 -2
v 24 19 -2
v 28 19 -2
v -20 19 -3
v 28 19 -3
v 28 21 1
v 30 21 1
v 28 21 -2
v 30 21 -2
v -28 22 1
v -20 22 1
v -28 22 -2
v -20 22 -2
v -28 24 -0
v -25 24 -0
v -28 24 -1
v -25 24 -1
v -22 26 1
v -20 26 1
v -22 26 -2
v -20 26 -2
v 1 3 1
v 2 3 1
v 1 3 -2
v 2 3 -2
v 2 6 1
v 3 6 1
v 2 6 -2
v 3 6 -2
v 3 9 1
v 4 9 1
v 3 9 -2
v 4 9 -2
v 30 10 1
v 31 10 1
v 30 10 -2
v 31 10 -2
v 4 12 1
v 5 12 1
v 4 12 -2
v 5 12 -2
v 29 13 1
v 30 13 1
v 29 13 -2
v 30 13 -2
v 20 14 1
v 24 14 1
v 20 14 -2
v 24 14 -2
v 5 15 1
v 6 15 1
v 5 15 -2
v 6 15 -2
v 28 16 1
v 29 16 1
v 28 16 -2
v 29 16 -2
v -24 21 1
v -20 21 1
v -24 21 -2
v -20 21 -2
v -28 23 -0
v -25 23 -0
v -28 23 -1
v -25 23 -1
v 28 24 1
v 30 24 1
v 28 24 -2
v 30 24 -2
v 27 25 2
v 28 25 2
v -28 25 1
v -24 25 1
v -22 25 1
v -20 25 1
v 30 25 1
v 32 25 1
v -28 25 -2
v -24 25 -2
v -22 25 -2
v -20 25 -2
v 30 25 -2
v 32 25 -2
v 27 25 -3
v 28 25 -3
v 26 26 2
v 27 26 2
v 26 26 -3
v 27 26 -3
v -20 27 2
v 26 27 2
v -20 27 1
v 24 27 1
v -20 27 -2
v 24 27 -2
v -20 27 -3
v 26 27 -3
v -23 28 1
v 24 28 1
v -23 28 -2
v 24 28 -2
v -24 29 1
v -23 29 1
v -24 29 -0
v -23 29 -0
v -24 29 -1
v -23 29 -1
v -24 29 -2
v -23 29 -2
v -24 30 -0
v -23 30 -0
v -24 30 -1
v -23 30 -1

# faces
f 3/3/1 2/3/1 1/3/1
f 4/3/1 2/3/1 3/3/1
f 5/3/1 3/3/1 1/3/1
f 6/3/1 2/3/1 4/3/1
f 7/3/1 5/3/1 1/3/1
f 7/3/1 6/3/1 5/3/1
f 8/3/1 2/3/1 6/3/1
f 8/3/1 6/3/1 7/3/1
f 11/4/1 10/4/1 9/4/1
f 12/4/1 10/4/1 11/4/1
f 15/3/1 14/3/1 13/3/1
f 16/3/1 14/3/1 15/3/1
f 19/3/1 18/3/1 17/3/1
f 20/3/1 18/3/1 19/3/1
f 21/3/1 18/3/1 20/3/1
f 22/3/1 18/3/1 21/3/1
f 23/3/1 21/3/1 20/3/1
f 24/3/1 21/3/1 23/3/1
f 29/3/1 26/3/1 25/3/1
f 30/3/1 28/3/1 27/3/1
f 31/3/1 29/3/1 25/3/1
f 31/3/1 30/3/1 29/3/1
f 32/3/1 28/3/1 30/3/1
f 32/3/1 30/3/1 31/3/1
f 33/3/1 31/3/1 25/3/1
f 34/3/1 28/3/1 32/3/1
f 35/3/1 33/3/1 25/3/1
f 35/3/1 34/3/1 33/3/1
f 36/3/1 28/3/1 34/3/1
f 36/3/1 34/3/1 35/3/1
f 37/3/1 35/3/1 25/3/1
f 38/3/1 35/3/1 37/3/1
f 39/3/1 28/3/1 36/3/1
f 40/3/1 28/3/1 39/3/1
f 43/3/1 42/3/1 41/3/1
f 44/3/1 42/3/1 43/3/1
f 47/3/1 46/3/1 45/3/1
f 48/3/1 46/3/1 47/3/1
f 51/3/1 50/3/1 49/3/1
f 52/3/1 50/3/1 51/3/1
f 55/3/1 54/3/1 53/3/1
f 56/3/1 54/3/1 55/3/1
f 59/3/1 58/3/1 57/3/1
f 60/3/1 58/3/1 59/3/1
f 63/3/1 62/3/1 61/3/1
f 64/3/1 62/3/1 63/3/1
f 67/3/1 66/3/1 65/3/1
f 68/3/1 66/3/1 67/3/1
f 71/3/1 70/3/1 69/3/1
f 72/3/1 70/3/1 71/3/1
f 75/3/1 74/3/1 73/3/1
f 76/3/1 74/3/1 75/3/1
f 79/3/1 78/3/1 77/3/1
f 80/3/1 78/3/1 79/3/1
f 83/3/1 82/3/1 81/3/1
f 84/3/1 82/3/1 83/3/1
f 87/3/1 86/3/1 85/3/1
f 88/3/1 86/3/1 87/3/1
f 91/3/1 90/3/1 89/3/1
f 92/3/1 90/3/1 91/3/1
f 95/3/1 94/3/1 93/3/1
f 96/3/1 94/3/1 95/3/1
f 97/3/2 98/3/2 99/3/2
f 99/3/2 98/3/2 100/3/2
f 100/3/2 98/3/2 101/3/2
f 101/3/2 98/3/2 102/3/2
f 100/3/2 101/3/2 103/3/2
f 103/3/2 101/3/2 104/3/2
f 105/3/2 106/3/2 107/3/2
f 107/3/2 106/3/2 108/3/2
f 109/3/2 110/3/2 111/3/2
f 111/3/2 110/3/2 112/3/2
f 113/3/2 114/3/2 115/3/2
f 115/3/2 114/3/2 116/3/2
f 117/3/2 118/3/2 119/3/2
f 119/3/2 118/3/2 120/3/2
f 121/3/2 122/3/2 123/3/2
f 123/3/2 122/3/2 124/3/2
f 125/3/2 126/3/2 127/3/2
f 127/3/2 126/3/2 128/3/2
f 129/3/2 130/3/2 131/3/2
f 131/3/2 130/3/2 132/3/2
f 133/3/2 134/3/2 135/3/2
f 135/3/2 134/3/2 136/3/2
f 137/3/2 138/3/2 139/3/2
f 139/3/2 138/3/2 140/3/2
f 140/3/2 138/3/2 141/3/2
f 142/3/2 143/3/2 144/3/2
f 144/3/2 143/3/2 145/3/2
f 146/3/2 147/3/2 148/3/2
f 148/3/2 147/3/2 149/3/2
f 150/3/2 151/3/2 152/3/2
f 152/3/2 151/3/2 153/3/2
f 154/3/2 155/3/2 157/3/2
f 157/3/2 155/3/2 158/3/2
f 156/3/2 157/3/2 160/3/2
f 158/3/2 159/3/2 160/3/2
f 157/3/2 158/3/2 160/3/2
f 160/3/2 159/3/2 161/3/2
f 156/3/2 160/3/2 162/3/2
f 161/3/2 159/3/2 163/3/2
f 156/3/2 162/3/2 164/3/2
f 162/3/2 163/3/2 164/3/2
f 163/3/2 159/3/2 165/3/2
f 164/3/2 163/3/2 165/3/2
f 166/3/2 167/3/2 168/3/2
f 168/3/2 167/3/2 169/3/2
f 170/3/2 171/3/2 172/3/2
f 172/3/2 171/3/2 173/3/2
f 174/3/2 175/3/2 176/3/2
f 176/3/2 175/3/2 177/3/2
f 178/3/2 179/3/2 180/3/2
f 180/3/2 179/3/2 181/3/2
f 184/3/3 183/3/3 182/3/3
f 185/3/3 183/3/3 184/3/3
f 186/3/3 184/3/3 182/3/3
f 186/2/3 185/2/3 184/2/3
f 187/3/3 183/3/3 185/3/3
f 187/2/3 185/2/3 186/2/3
f 188/3/3 187/3/3 186/3/3
f 188/3/3 183/3/3 187/3/3
f 189/3/3 183/3/3 188/3/3
f 190/3/3 188/3/3 186/3/3
f 191/3/3 188/3/3 190/3/3
f 192/3/3 186/3/3 182/3/3
f 192/3/3 190/3/3 186/3/3
f 193/3/3 190/3/3 192/3/3
f 198/3/3 195/3/3 194/3/3
f 200/3/3 199/3/3 198/3/3
f 201/3/3 199/3/3 200/3/3
f 202/3/3 198/3/3 194/3/3
f 202/3/3 200/3/3 198/3/3
f 203/3/3 200/3/3 202/3/3
f 204/3/3 197/3/3 196/3/3
f 205/3/3 197/3/3 204/3/3
f 206/3/3 202/3/3 194/3/3
f 207/3/3 202/3/3 206/3/3
f 208/3/3 200/3/3 203/3/3
f 209/3/3 200/3/3 208/3/3
f 212/3/3 211/3/3 210/3/3
f 214/3/3 213/3/3 212/3/3
f 216/3/3 215/3/3 214/3/3
f 218/3/3 204/3/3 196/3/3
f 219/3/3 204/3/3 218/3/3
f 220/3/3 217/3/3 216/3/3
f 222/3/3 212/3/3 210/3/3
f 222/3/3 221/3/3 220/3/3
f 222/3/3 220/3/3 216/3/3
f 222/3/3 214/3/3 212/3/3
f 222/3/3 216/3/3 214/3/3
f 223/3/3 221/3/3 222/3/3
f 224/3/3 221/3/3 223/3/3
f 226/3/3 225/3/3 224/3/3
f 226/3/3 224/3/3 223/3/3
f 227/3/3 225/3/3 226/3/3
f 228/3/3 225/3/3 227/3/3
f 229/3/3 225/3/3 228/3/3
f 230/3/3 228/3/3 227/3/3
f 231/3/3 228/3/3 230/3/3
f 232/3/3 228/3/3 231/3/3
f 233/3/3 228/3/3 232/3/3
f 234/3/3 228/3/3 233/3/3
f 235/2/3 229/2/3 228/2/3
f 235/3/3 228/3/3 234/3/3
f 236/3/3 234/3/3 233/3/3
f 237/3/3 234/3/3 236/3/3
f 238/2/3 235/2/3 234/2/3
f 238/3/3 234/3/3 237/3/3
f 239/2/3 229/2/3 235/2/3
f 239/2/3 235/2/3 238/2/3
f 240/3/3 238/3/3 237/3/3
f 240/3/3 239/3/3 238/3/3
f 241/3/3 239/3/3 240/3/3
f 243/3/3 239/3/3 241/3/3
f 244/3/3 243/3/3 242/3/3
f 245/3/3 239/3/3 243/3/3
f 245/3/3 243/3/3 244/3/3
f 247/3/3 244/3/3 242/3/3
f 248/3/3 244/3/3 247/3/3
f 249/3/3 239/3/3 245/3/3
f 250/3/3 200/3/3 209/3/3
f 251/3/3 200/3/3 250/3/3
f 253/3/3 249/3/3 248/3/3
f 253/3/3 247/3/3 246/3/3
f 253/3/3 248/3/3 247/3/3
f 255/3/3 253/3/3 252/3/3
f 256/3/3 239/3/3 249/3/3
f 256/3/3 255/3/3 254/3/3
f 256/3/3 253/3/3 255/3/3
f 256/3/3 249/3/3 253/3/3
f 257/3/3 239/3/3 256/3/3
f 260/3/3 256/3/3 254/3/3
f 261/3/3 256/3/3 260/3/3
f 262/3/3 260/3/3 254/3/3
f 263/3/3 260/3/3 262/3/3
f 265/3/3 259/3/3 258/3/3
f 266/3/3 259/3/3 265/3/3
f 268/3/3 262/3/3 254/3/3
f 269/3/3 262/3/3 268/3/3
f 271/3/3 267/3/3 266/3/3
f 271/3/3 266/3/3 265/3/3
f 271/3/3 265/3/3 264/3/3
f 272/3/3 271/3/3 270/3/3
f 273/3/3 267/3/3 271/3/3
f 273/3/3 271/3/3 272/3/3
f 276/3/3 275/3/3 274/3/3
f 277/3/3 275/3/3 276/3/3
f 280/3/3 279/3/3 278/3/3
f 281/3/3 279/3/3 280/3/3
f 282/3/4 283/3/4 284/3/4
f 284/3/4 283/3/4 285/3/4
f 286/3/4 287/3/4 288/3/4
f 288/3/4 287/3/4 289/3/4
f 290/3/4 291/3/4 294/3/4
f 294/3/4 295/3/4 296/3/4
f 296/3/4 295/3/4 297/3/4
f 290/3/4 294/3/4 298/3/4
f 294/3/4 296/3/4 298/3/4
f 298/3/4 296/3/4 299/3/4
f 292/3/4 293/3/4 300/3/4
f 300/3/4 293/3/4 301/3/4
f 290/3/4 298/3/4 302/3/4
f 302/3/4 298/3/4 303/3/4
f 299/3/4 296/3/4 304/3/4
f 304/3/4 296/3/4 305/3/4
f 306/3/4 307/3/4 308/3/4
f 308/3/4 309/3/4 310/3/4
f 310/3/4 311/3/4 312/3/4
f 292/3/4 300/3/4 314/3/4
f 314/3/4 300/3/4 315/3/4
f 312/3/4 313/3/4 316/3/4
f 306/3/4 308/3/4 318/3/4
f 316/3/4 317/3/4 318/3/4
f 312/3/4 316/3/4 318/3/4
f 308/3/4 310/3/4 318/3/4
f 310/3/4 312/3/4 318/3/4
f 318/3/4 317/3/4 319/3/4
f 319/3/4 317/3/4 320/3/4
f 320/3/4 321/3/4 322/3/4
f 319/3/4 320/3/4 322/3/4
f 322/3/4 321/3/4 323/3/4
f 323/3/4 321/3/4 324/3/4
f 324/3/4 321/3/4 325/3/4
f 323/3/4 324/3/4 326/3/4
f 326/3/4 324/3/4 327/3/4
f 327/3/4 324/3/4 328/3/4
f 328/3/4 324/3/4 329/3/4
f 329/3/4 324/3/4 330/3/4
f 324/2/4 325/2/4 331/2/4
f 330/3/4 324/3/4 331/3/4
f 329/3/4 330/3/4 332/3/4
f 332/3/4 330/3/4 333/3/4
f 330/2/4 331/2/4 334/2/4
f 333/3/4 330/3/4 334/3/4
f 331/2/4 325/2/4 335/2/4
f 334/2/4 331/2/4 335/2/4
f 333/3/4 334/3/4 336/3/4
f 334/3/4 335/3/4 336/3/4
f 336/3/4 335/3/4 337/3/4
f 337/3/4 335/3/4 338/3/4
f 338/3/4 335/3/4 339/3/4
f 337/3/4 338/3/4 341/3/4
f 338/1/4 339/1/4 342/1/4
f 341/3/4 338/3/4 342/3/4
f 342/1/4 339/1/4 343/1/4
f 340/3/4 341/3/4 344/3/4
f 341/1/4 342/1/4 345/1/4
f 344/3/4 341/3/4 345/3/4
f 345/1/4 342/1/4 346/1/4
f 342/3/4 343/3/4 347/3/4
f 346/1/4 342/1/4 347/1/4
f 340/3/4 344/3/4 349/3/4
f 349/3/4 344/3/4 350/3/4
f 346/3/4 347/3/4 351/3/4
f 343/1/4 339/1/4 352/1/4
f 347/3/4 343/3/4 352/3/4
f 351/3/4 347/3/4 352/3/4
f 352/1/4 339/1/4 353/1/4
f 305/3/4 296/3/4 354/3/4
f 354/3/4 296/3/4 355/3/4
f 352/3/4 353/3/4 357/3/4
f 351/3/4 352/3/4 357/3/4
f 348/3/4 349/3/4 357/3/4
f 349/3/4 350/3/4 357/3/4
f 350/3/4 351/3/4 357/3/4
f 356/3/4 357/3/4 359/3/4
f 357/3/4 353/3/4 360/3/4
f 358/3/4 359/3/4 360/3/4
f 359/3/4 357/3/4 360/3/4
f 360/3/4 353/3/4 361/3/4
f 358/3/4 360/3/4 364/3/4
f 364/3/4 360/3/4 365/3/4
f 358/3/4 364/3/4 366/3/4
f 366/3/4 364/3/4 367/3/4
f 362/3/4 363/3/4 369/3/4
f 369/3/4 363/3/4 370/3/4
f 358/3/4 366/3/4 372/3/4
f 372/3/4 366/3/4 373/3/4
f 370/3/4 371/3/4 375/3/4
f 369/3/4 370/3/4 375/3/4
f 368/3/4 369/3/4 375/3/4
f 374/3/4 375/3/4 376/3/4
f 375/3/4 371/3/4 377/3/4
f 376/3/4 375/3/4 377/3/4
f 378/3/4 379/3/4 380/3/4
f 380/3/4 379/3/4 381/3/4
f 378/3/4 380/3/4 382/3/4
f 380/2/4 381/2/4 382/2/4
f 381/3/4 379/3/4 383/3/4
f 382/2/4 381/2/4 383/2/4
f 382/3/4 383/3/4 384/3/4
f 383/3/4 379/3/4 384/3/4
f 384/3/4 379/3/4 385/3/4
f 382/3/4 384/3/4 386/3/4
f 386/3/4 384/3/4 387/3/4
f 378/3/4 382/3/4 388/3/4
f 382/3/4 386/3/4 388/3/4
f 388/3/4 386/3/4 389/3/4
f 392/3/5 391/3/5 390/3/5
f 393/3/5 391/3/5 392/3/5
f 396/3/5 395/3/5 394/3/5
f 397/3/5 395/3/5 396/3/5
f 402/3/5 399/3/5 398/3/5
f 403/3/5 399/3/5 402/3/5
f 404/3/5 401/3/5 400/3/5
f 405/3/5 401/3/5 404/3/5
f 410/3/5 407/3/5 406/3/5
f 411/3/5 407/3/5 410/3/5
f 412/3/5 409/3/5 408/3/5
f 413/3/5 409/3/5 412/3/5
f 418/3/5 415/3/5 414/3/5
f 419/3/5 415/3/5 418/3/5
f 420/3/5 417/3/5 416/3/5
f 421/3/5 417/3/5 420/3/5
f 424/3/5 423/3/5 422/3/5
f 425/3/5 423/3/5 424/3/5
f 428/3/5 427/3/5 426/3/5
f 429/3/5 427/3/5 428/3/5
f 436/3/5 433/3/5 432/3/5
f 437/3/5 433/3/5 436/3/5
f 438/3/5 431/3/5 430/3/5
f 439/3/5 431/3/5 438/3/5
f 440/1/5 437/1/5 436/1/5
f 441/3/5 433/3/5 437/3/5
f 441/1/5 437/1/5 440/1/5
f 442/3/5 433/3/5 441/3/5
f 443/3/5 435/3/5 434/3/5
f 444/3/5 435/3/5 443/3/5
f 449/3/5 446/3/5 445/3/5
f 450/3/5 446/3/5 449/3/5
f 451/3/5 448/3/5 447/3/5
f 452/3/5 448/3/5 451/3/5
f 455/3/5 454/3/5 453/3/5
f 456/3/5 454/3/5 455/3/5
f 457/3/5 454/3/5 456/3/5
f 458/3/5 454/3/5 457/3/5
f 459/3/5 454/3/5 458/3/5
f 460/3/5 454/3/5 459/3/5
f 462/3/5 457/3/5 456/3/5
f 463/3/5 457/3/5 462/3/5
f 469/3/5 462/3/5 461/3/5
f 469/3/5 468/3/5 467/3/5
f 469/3/5 467/3/5 466/3/5
f 469/3/5 466/3/5 465/3/5
f 469/3/5 465/3/5 464/3/5
f 469/3/5 464/3/5 463/3/5
f 469/3/5 463/3/5 462/3/5
f 470/3/5 468/3/5 469/3/5
f 473/3/5 472/3/5 471/3/5
f 474/3/5 472/3/5 473/3/5
f 477/3/5 476/3/5 475/3/5
f 478/3/5 476/3/5 477/3/5
f 481/3/5 480/3/5 479/3/5
f 482/3/5 480/3/5 481/3/5
f 485/3/5 484/3/5 483/3/5
f 486/3/5 484/3/5 485/3/5
f 487/3/6 488/3/6 489/3/6
f 489/3/6 488/3/6 490/3/6
f 491/3/6 492/3/6 493/3/6
f 493/3/6 492/3/6 494/3/6
f 495/3/6 496/3/6 497/3/6
f 497/3/6 496/3/6 498/3/6
f 499/3/6 500/3/6 501/3/6
f 501/3/6 500/3/6 502/3/6
f 503/3/6 504/3/6 505/3/6
f 505/3/6 504/3/6 506/3/6
f 507/3/6 508/3/6 509/3/6
f 509/3/6 508/3/6 510/3/6
f 511/3/6 512/3/6 513/3/6
f 513/3/6 512/3/6 514/3/6
f 515/3/6 516/3/6 517/3/6
f 517/3/6 516/3/6 518/3/6
f 519/3/6 520/3/6 521/3/6
f 521/3/6 520/3/6 522/3/6
f 523/3/6 524/3/6 525/3/6
f 525/3/6 524/3/6 526/3/6
f 527/3/6 528/3/6 529/3/6
f 529/3/6 528/3/6 530/3/6
f 531/3/6 532/3/6 533/3/6
f 533/3/6 532/3/6 534/3/6
f 537/3/6 538/3/6 543/3/6
f 543/3/6 538/3/6 544/3/6
f 539/3/6 540/3/6 545/3/6
f 545/3/6 540/3/6 546/3/6
f 541/3/6 542/3/6 547/3/6
f 547/3/6 542/3/6 548/3/6
f 535/3/6 536/3/6 549/3/6
f 549/3/6 536/3/6 550/3/6
f 551/3/6 552/3/6 553/3/6
f 553/3/6 552/3/6 554/3/6
f 555/3/6 556/3/6 557/3/6
f 557/3/6 556/3/6 558/3/6
f 558/3/6 556/3/6 560/3/6
f 559/3/6 560/3/6 561/3/6
f 560/3/6 556/3/6 562/3/6
f 561/3/6 560/3/6 562/3/6
f 563/3/6 564/3/6 565/3/6
f 565/3/6 564/3/6 566/3/6
f 567/3/6 568/3/6 569/3/6
f 569/3/6 568/3/6 570/3/6
f 571/3/6 572/3/6 573/3/6
f 573/3/6 572/3/6 574/3/6
f 575/3/6 576/3/6 577/3/6
f 577/3/6 576/3/6 578/3/6
