# MagicaVoxel @ Ephtracy

# group
g revolver

# material
mtllib revolver.mtl
usemtl palette

# normals
vn -1 0 0
vn 1 0 0
vn 0 0 1
vn 0 0 -1
vn 0 -1 0
vn 0 1 0

# texcoords
vt 0.310547 0.5
vt 0.931641 0.5
vt 0.994141 0.5

# verts
v -20 19 -0
v -20 19 -2
v -20 20 1
v -20 20 -0
v -20 20 -2
v -20 20 -3
v -20 21 -0
v -20 21 -2
v -20 23 -0
v -20 23 -2
v -20 24 1
v -20 24 -0
v -20 24 -2
v -20 24 -3
v -20 25 -0
v -20 25 -2
v -17 21 -0
v -17 21 -2
v -17 23 -0
v -17 23 -2
v -5 15 -0
v -5 15 -2
v -5 19 -0
v -5 19 -2
v -4 13 1
v -4 13 -3
v -4 15 -0
v -4 15 -2
v -4 20 1
v -4 20 -0
v -4 20 -2
v -4 20 -3
v -2 24 1
v -2 24 -0
v -2 24 -2
v -2 24 -3
v -2 25 1
v -2 25 -0
v -2 25 -2
v -2 25 -3
v 0 16 2
v 0 16 1
v 0 16 -3
v 0 16 -4
v 0 18 3
v 0 18 2
v 0 18 -4
v 0 18 -5
v 0 20 3
v 0 20 2
v 0 20 -4
v 0 20 -5
v 0 22 2
v 0 22 1
v 0 22 -3
v 0 22 -4
v 3 10 1
v 3 10 -3
v 3 13 1
v 3 13 -3
v 7 8 1
v 7 8 -3
v 7 10 1
v 7 10 -3
v 7 15 1
v 7 15 -0
v 7 15 -2
v 7 15 -3
v 7 16 1
v 7 16 -0
v 7 16 -2
v 7 16 -3
v 7 22 1
v 7 22 -0
v 7 22 -2
v 7 22 -3
v 7 23 1
v 7 23 -0
v 7 23 -2
v 7 23 -3
v 8 11 1
v 8 11 -3
v 8 13 1
v 8 13 -3
v 10 5 1
v 10 5 -3
v 10 8 1
v 10 8 -3
v 11 3 1
v 11 3 -3
v 11 5 1
v 11 5 -3
v 12 0 1
v 12 0 -3
v 12 3 1
v 12 3 -3
v 12 21 1
v 12 21 -3
v 12 23 1
v 12 23 -3
v 0 15 1
v 0 15 -0
v 0 15 -2
v 0 15 -3
v 0 16 1
v 0 16 -0
v 0 16 -2
v 0 16 -3
v 0 22 1
v 0 22 -0
v 0 22 -2
v 0 22 -3
v 0 23 1
v 0 23 -0
v 0 23 -2
v 0 23 -3
v 4 11 1
v 4 11 -3
v 4 13 1
v 4 13 -3
v 7 16 2
v 7 16 1
v 7 16 -3
v 7 16 -4
v 7 18 3
v 7 18 2
v 7 18 -4
v 7 18 -5
v 7 20 3
v 7 20 2
v 7 20 -4
v 7 20 -5
v 7 22 2
v 7 22 1
v 7 22 -3
v 7 22 -4
v 9 24 1
v 9 24 -3
v 9 25 1
v 9 25 -3
v 10 23 1
v 10 23 -3
v 10 24 1
v 10 24 -3
v 11 16 1
v 11 16 -3
v 11 20 1
v 11 20 -3
v 11 21 1
v 11 21 -3
v 11 23 1
v 11 23 -3
v 12 15 1
v 12 15 -3
v 12 16 1
v 12 16 -3
v 13 20 1
v 13 20 -3
v 13 22 1
v 13 22 -3
v 14 22 1
v 14 22 -3
v 14 23 1
v 14 23 -3
v 15 8 1
v 15 8 -3
v 15 15 1
v 15 15 -3
v 16 5 1
v 16 5 -3
v 16 8 1
v 16 8 -3
v 17 0 1
v 17 0 -3
v 17 5 1
v 17 5 -3
v 0 18 3
v 0 20 3
v 7 18 3
v 7 20 3
v 0 16 2
v 0 18 2
v 0 20 2
v 0 22 2
v 7 16 2
v 7 18 2
v 7 20 2
v 7 22 2
v -20 20 1
v -20 24 1
v -4 13 1
v -4 20 1
v -2 24 1
v -2 25 1
v 0 15 1
v 0 16 1
v 0 22 1
v 0 23 1
v 3 10 1
v 3 13 1
v 4 11 1
v 4 13 1
v 7 8 1
v 7 10 1
v 7 15 1
v 7 16 1
v 7 22 1
v 7 23 1
v 8 11 1
v 8 13 1
v 9 24 1
v 9 25 1
v 10 5 1
v 10 8 1
v 10 23 1
v 10 24 1
v 11 3 1
v 11 5 1
v 11 10 1
v 11 13 1
v 11 16 1
v 11 20 1
v 11 21 1
v 11 23 1
v 12 0 1
v 12 3 1
v 12 15 1
v 12 16 1
v 12 21 1
v 12 23 1
v 13 20 1
v 13 22 1
v 14 13 1
v 14 15 1
v 14 22 1
v 14 23 1
v 15 8 1
v 15 15 1
v 16 5 1
v 16 8 1
v 17 0 1
v 17 5 1
v -20 19 -0
v -20 20 -0
v -20 24 -0
v -20 25 -0
v -5 15 -0
v -5 19 -0
v -4 15 -0
v -4 20 -0
v -2 24 -0
v -2 25 -0
v 0 15 -0
v 0 16 -0
v 0 22 -0
v 0 23 -0
v 7 15 -0
v 7 16 -0
v 7 22 -0
v 7 23 -0
v -20 21 -2
v -20 23 -2
v -17 21 -2
v -17 23 -2
v -20 21 -0
v -20 23 -0
v -17 21 -0
v -17 23 -0
v -20 19 -2
v -20 20 -2
v -20 24 -2
v -20 25 -2
v -5 15 -2
v -5 19 -2
v -4 15 -2
v -4 20 -2
v -2 24 -2
v -2 25 -2
v 0 15 -2
v 0 16 -2
v 0 22 -2
v 0 23 -2
v 7 15 -2
v 7 16 -2
v 7 22 -2
v 7 23 -2
v -20 20 -3
v -20 24 -3
v -4 13 -3
v -4 20 -3
v -2 24 -3
v -2 25 -3
v 0 15 -3
v 0 16 -3
v 0 22 -3
v 0 23 -3
v 3 10 -3
v 3 13 -3
v 4 11 -3
v 4 13 -3
v 7 8 -3
v 7 10 -3
v 7 15 -3
v 7 16 -3
v 7 22 -3
v 7 23 -3
v 8 11 -3
v 8 13 -3
v 9 24 -3
v 9 25 -3
v 10 5 -3
v 10 8 -3
v 10 23 -3
v 10 24 -3
v 11 3 -3
v 11 5 -3
v 11 10 -3
v 11 13 -3
v 11 16 -3
v 11 20 -3
v 11 21 -3
v 11 23 -3
v 12 0 -3
v 12 3 -3
v 12 15 -3
v 12 16 -3
v 12 21 -3
v 12 23 -3
v 13 20 -3
v 13 22 -3
v 14 13 -3
v 14 15 -3
v 14 22 -3
v 14 23 -3
v 15 8 -3
v 15 15 -3
v 16 5 -3
v 16 8 -3
v 17 0 -3
v 17 5 -3
v 0 16 -4
v 0 18 -4
v 0 20 -4
v 0 22 -4
v 7 16 -4
v 7 18 -4
v 7 20 -4
v 7 22 -4
v 0 18 -5
v 0 20 -5
v 7 18 -5
v 7 20 -5
v 12 0 1
v 17 0 1
v 12 0 -3
v 17 0 -3
v 11 3 1
v 12 3 1
v 11 3 -3
v 12 3 -3
v 10 5 1
v 11 5 1
v 10 5 -3
v 11 5 -3
v 7 8 1
v 10 8 1
v 7 8 -3
v 10 8 -3
v 3 10 1
v 7 10 1
v 3 10 -3
v 7 10 -3
v -4 13 1
v 3 13 1
v 4 13 1
v 8 13 1
v -4 13 -3
v 3 13 -3
v 4 13 -3
v 8 13 -3
v -5 15 -0
v -4 15 -0
v -5 15 -2
v -4 15 -2
v 0 16 2
v 7 16 2
v 0 16 1
v 7 16 1
v 0 16 -0
v 7 16 -0
v 0 16 -2
v 7 16 -2
v 0 16 -3
v 7 16 -3
v 0 16 -4
v 7 16 -4
v 0 18 3
v 7 18 3
v 0 18 2
v 7 18 2
v 0 18 -4
v 7 18 -4
v 0 18 -5
v 7 18 -5
v -20 19 -0
v -5 19 -0
v -20 19 -2
v -5 19 -2
v -20 20 1
v -4 20 1
v 11 20 1
v 13 20 1
v -20 20 -0
v -4 20 -0
v -20 20 -2
v -4 20 -2
v -20 20 -3
v -4 20 -3
v 11 20 -3
v 13 20 -3
v 13 22 1
v 14 22 1
v 13 22 -3
v 14 22 -3
v 0 23 1
v 7 23 1
v -20 23 -0
v -17 23 -0
v 0 23 -0
v 7 23 -0
v -20 23 -2
v -17 23 -2
v 0 23 -2
v 7 23 -2
v 0 23 -3
v 7 23 -3
v 16 5 1
v 17 5 1
v 16 5 -3
v 17 5 -3
v 15 8 1
v 16 8 1
v 15 8 -3
v 16 8 -3
v 4 11 1
v 8 11 1
v 4 11 -3
v 8 11 -3
v 0 15 1
v 7 15 1
v 12 15 1
v 14 15 1
v 15 15 1
v 0 15 -0
v 7 15 -0
v 0 15 -2
v 7 15 -2
v 0 15 -3
v 7 15 -3
v 12 15 -3
v 14 15 -3
v 15 15 -3
v 11 16 1
v 12 16 1
v 11 16 -3
v 12 16 -3
v 0 20 3
v 7 20 3
v 0 20 2
v 7 20 2
v 0 20 -4
v 7 20 -4
v 0 20 -5
v 7 20 -5
v 11 21 1
v 12 21 1
v -20 21 -0
v -17 21 -0
v -20 21 -2
v -17 21 -2
v 11 21 -3
v 12 21 -3
v 0 22 2
v 7 22 2
v 0 22 1
v 7 22 1
v 0 22 -0
v 7 22 -0
v 0 22 -2
v 7 22 -2
v 0 22 -3
v 7 22 -3
v 0 22 -4
v 7 22 -4
v 10 23 1
v 11 23 1
v 12 23 1
v 14 23 1
v 10 23 -3
v 11 23 -3
v 12 23 -3
v 14 23 -3
v -20 24 1
v -2 24 1
v 9 24 1
v 10 24 1
v -20 24 -0
v -2 24 -0
v -20 24 -2
v -2 24 -2
v -20 24 -3
v -2 24 -3
v 9 24 -3
v 10 24 -3
v -2 25 1
v 9 25 1
v -20 25 -0
v -2 25 -0
v -20 25 -2
v -2 25 -2
v -2 25 -3
v 9 25 -3

# faces
f 4/2/1 2/2/1 1/2/1
f 5/2/1 2/2/1 4/2/1
f 7/2/1 4/2/1 3/2/1
f 7/2/1 6/2/1 5/2/1
f 7/2/1 5/2/1 4/2/1
f 8/2/1 6/2/1 7/2/1
f 9/2/1 7/2/1 3/2/1
f 10/2/1 6/2/1 8/2/1
f 11/2/1 9/2/1 3/2/1
f 11/2/1 10/2/1 9/2/1
f 12/2/1 10/2/1 11/2/1
f 13/2/1 6/2/1 10/2/1
f 13/2/1 10/2/1 12/2/1
f 14/2/1 6/2/1 13/2/1
f 15/2/1 13/2/1 12/2/1
f 16/2/1 13/2/1 15/2/1
f 19/3/1 18/3/1 17/3/1
f 20/3/1 18/3/1 19/3/1
f 23/2/1 22/2/1 21/2/1
f 24/2/1 22/2/1 23/2/1
f 27/2/1 26/2/1 25/2/1
f 28/2/1 26/2/1 27/2/1
f 29/2/1 27/2/1 25/2/1
f 30/2/1 27/2/1 29/2/1
f 31/2/1 26/2/1 28/2/1
f 32/2/1 26/2/1 31/2/1
f 37/2/1 34/2/1 33/2/1
f 38/2/1 34/2/1 37/2/1
f 39/2/1 36/2/1 35/2/1
f 40/2/1 36/2/1 39/2/1
f 46/2/1 42/2/1 41/2/1
f 47/2/1 44/2/1 43/2/1
f 49/2/1 46/2/1 45/2/1
f 50/2/1 42/2/1 46/2/1
f 50/2/1 46/2/1 49/2/1
f 51/2/1 48/2/1 47/2/1
f 51/2/1 47/2/1 43/2/1
f 52/2/1 48/2/1 51/2/1
f 53/2/1 42/2/1 50/2/1
f 54/2/1 42/2/1 53/2/1
f 55/2/1 51/2/1 43/2/1
f 56/2/1 51/2/1 55/2/1
f 59/2/1 58/2/1 57/2/1
f 60/2/1 58/2/1 59/2/1
f 63/1/1 62/1/1 61/1/1
f 64/1/1 62/1/1 63/1/1
f 69/2/1 66/2/1 65/2/1
f 70/2/1 66/2/1 69/2/1
f 71/2/1 68/2/1 67/2/1
f 72/2/1 68/2/1 71/2/1
f 77/2/1 74/2/1 73/2/1
f 78/2/1 74/2/1 77/2/1
f 79/2/1 76/2/1 75/2/1
f 80/2/1 76/2/1 79/2/1
f 83/2/1 82/2/1 81/2/1
f 84/2/1 82/2/1 83/2/1
f 87/1/1 86/1/1 85/1/1
f 88/1/1 86/1/1 87/1/1
f 91/1/1 90/1/1 89/1/1
f 92/1/1 90/1/1 91/1/1
f 95/1/1 94/1/1 93/1/1
f 96/1/1 94/1/1 95/1/1
f 99/2/1 98/2/1 97/2/1
f 100/2/1 98/2/1 99/2/1
f 101/2/2 102/2/2 105/2/2
f 105/2/2 102/2/2 106/2/2
f 103/2/2 104/2/2 107/2/2
f 107/2/2 104/2/2 108/2/2
f 109/2/2 110/2/2 113/2/2
f 113/2/2 110/2/2 114/2/2
f 111/2/2 112/2/2 115/2/2
f 115/2/2 112/2/2 116/2/2
f 117/2/2 118/2/2 119/2/2
f 119/2/2 118/2/2 120/2/2
f 121/2/2 122/2/2 126/2/2
f 123/2/2 124/2/2 127/2/2
f 125/2/2 126/2/2 129/2/2
f 126/2/2 122/2/2 130/2/2
f 129/2/2 126/2/2 130/2/2
f 127/2/2 128/2/2 131/2/2
f 123/2/2 127/2/2 131/2/2
f 131/2/2 128/2/2 132/2/2
f 130/2/2 122/2/2 133/2/2
f 133/2/2 122/2/2 134/2/2
f 123/2/2 131/2/2 135/2/2
f 135/2/2 131/2/2 136/2/2
f 137/2/2 138/2/2 139/2/2
f 139/2/2 138/2/2 140/2/2
f 141/2/2 142/2/2 143/2/2
f 143/2/2 142/2/2 144/2/2
f 145/2/2 146/2/2 147/2/2
f 147/2/2 146/2/2 148/2/2
f 149/2/2 150/2/2 151/2/2
f 151/2/2 150/2/2 152/2/2
f 153/2/2 154/2/2 155/2/2
f 155/2/2 154/2/2 156/2/2
f 157/2/2 158/2/2 159/2/2
f 159/2/2 158/2/2 160/2/2
f 161/2/2 162/2/2 163/2/2
f 163/2/2 162/2/2 164/2/2
f 165/1/2 166/1/2 167/1/2
f 167/1/2 166/1/2 168/1/2
f 169/1/2 170/1/2 171/1/2
f 171/1/2 170/1/2 172/1/2
f 173/1/2 174/1/2 175/1/2
f 175/1/2 174/1/2 176/1/2
f 179/2/3 178/2/3 177/2/3
f 180/2/3 178/2/3 179/2/3
f 185/2/3 182/2/3 181/2/3
f 186/2/3 182/2/3 185/2/3
f 187/2/3 184/2/3 183/2/3
f 188/2/3 184/2/3 187/2/3
f 192/2/3 190/2/3 189/2/3
f 193/2/3 190/2/3 192/2/3
f 193/2/3 192/2/3 191/2/3
f 195/2/3 193/2/3 191/2/3
f 195/2/3 194/2/3 193/2/3
f 196/2/3 194/2/3 195/2/3
f 197/2/3 194/2/3 196/2/3
f 198/2/3 194/2/3 197/2/3
f 200/2/3 195/2/3 191/2/3
f 201/2/3 200/2/3 199/2/3
f 202/2/3 195/2/3 200/2/3
f 202/2/3 200/2/3 201/2/3
f 204/2/3 201/2/3 199/2/3
f 205/2/3 195/2/3 202/2/3
f 208/2/3 194/2/3 198/2/3
f 209/2/3 201/2/3 204/2/3
f 210/2/3 207/2/3 206/2/3
f 210/2/3 208/2/3 207/2/3
f 210/2/3 205/2/3 202/2/3
f 210/2/3 206/2/3 205/2/3
f 211/2/3 194/2/3 208/2/3
f 211/2/3 210/2/3 209/2/3
f 211/2/3 208/2/3 210/2/3
f 212/2/3 194/2/3 211/2/3
f 214/1/3 204/1/3 203/1/3
f 215/2/3 211/2/3 209/2/3
f 216/2/3 211/2/3 215/2/3
f 218/1/3 214/1/3 213/1/3
f 219/2/3 209/2/3 204/2/3
f 219/1/3 204/1/3 214/1/3
f 219/1/3 214/1/3 218/1/3
f 219/2/3 215/2/3 209/2/3
f 220/2/3 215/2/3 219/2/3
f 221/2/3 215/2/3 220/2/3
f 222/2/3 215/2/3 221/2/3
f 223/2/3 215/2/3 222/2/3
f 224/2/3 215/2/3 223/2/3
f 226/1/3 218/1/3 217/1/3
f 226/1/3 219/1/3 218/1/3
f 226/1/3 220/1/3 219/1/3
f 227/2/3 221/2/3 220/2/3
f 228/2/3 221/2/3 227/2/3
f 229/2/3 223/2/3 222/2/3
f 231/2/3 230/2/3 229/2/3
f 231/2/3 229/2/3 222/2/3
f 232/2/3 230/2/3 231/2/3
f 233/2/3 227/2/3 220/2/3
f 233/1/3 226/1/3 225/1/3
f 233/1/3 220/1/3 226/1/3
f 234/2/3 227/2/3 233/2/3
f 235/2/3 230/2/3 232/2/3
f 236/2/3 230/2/3 235/2/3
f 237/1/3 234/1/3 233/1/3
f 237/1/3 233/1/3 225/1/3
f 238/1/3 234/1/3 237/1/3
f 239/1/3 237/1/3 225/1/3
f 240/1/3 237/1/3 239/1/3
f 241/1/3 239/1/3 225/1/3
f 242/1/3 239/1/3 241/1/3
f 248/2/3 244/2/3 243/2/3
f 249/2/3 248/2/3 247/2/3
f 250/2/3 244/2/3 248/2/3
f 250/2/3 248/2/3 249/2/3
f 251/2/3 246/2/3 245/2/3
f 252/2/3 246/2/3 251/2/3
f 257/2/3 254/2/3 253/2/3
f 258/2/3 254/2/3 257/2/3
f 259/2/3 256/2/3 255/2/3
f 260/2/3 256/2/3 259/2/3
f 263/2/3 262/2/3 261/2/3
f 264/2/3 262/2/3 263/2/3
f 265/2/4 266/2/4 267/2/4
f 267/2/4 266/2/4 268/2/4
f 269/2/4 270/2/4 274/2/4
f 273/2/4 274/2/4 275/2/4
f 274/2/4 270/2/4 276/2/4
f 275/2/4 274/2/4 276/2/4
f 271/2/4 272/2/4 277/2/4
f 277/2/4 272/2/4 278/2/4
f 279/2/4 280/2/4 283/2/4
f 283/2/4 280/2/4 284/2/4
f 281/2/4 282/2/4 285/2/4
f 285/2/4 282/2/4 286/2/4
f 287/2/4 288/2/4 290/2/4
f 290/2/4 288/2/4 291/2/4
f 289/2/4 290/2/4 291/2/4
f 289/2/4 291/2/4 293/2/4
f 291/2/4 292/2/4 293/2/4
f 293/2/4 292/2/4 294/2/4
f 294/2/4 292/2/4 295/2/4
f 295/2/4 292/2/4 296/2/4
f 289/2/4 293/2/4 298/2/4
f 297/2/4 298/2/4 299/2/4
f 298/2/4 293/2/4 300/2/4
f 299/2/4 298/2/4 300/2/4
f 297/2/4 299/2/4 302/2/4
f 300/2/4 293/2/4 303/2/4
f 296/2/4 292/2/4 306/2/4
f 302/2/4 299/2/4 307/2/4
f 304/2/4 305/2/4 308/2/4
f 305/2/4 306/2/4 308/2/4
f 300/2/4 303/2/4 308/2/4
f 303/2/4 304/2/4 308/2/4
f 306/2/4 292/2/4 309/2/4
f 307/2/4 308/2/4 309/2/4
f 308/2/4 306/2/4 309/2/4
f 309/2/4 292/2/4 310/2/4
f 301/1/4 302/1/4 312/1/4
f 307/2/4 309/2/4 313/2/4
f 313/2/4 309/2/4 314/2/4
f 311/1/4 312/1/4 316/1/4
f 302/2/4 307/2/4 317/2/4
f 312/1/4 302/1/4 317/1/4
f 316/1/4 312/1/4 317/1/4
f 307/2/4 313/2/4 317/2/4
f 317/2/4 313/2/4 318/2/4
f 318/2/4 313/2/4 319/2/4
f 319/2/4 313/2/4 320/2/4
f 320/2/4 313/2/4 321/2/4
f 321/2/4 313/2/4 322/2/4
f 315/1/4 316/1/4 324/1/4
f 316/1/4 317/1/4 324/1/4
f 317/1/4 318/1/4 324/1/4
f 318/2/4 319/2/4 325/2/4
f 325/2/4 319/2/4 326/2/4
f 320/2/4 321/2/4 327/2/4
f 327/2/4 328/2/4 329/2/4
f 320/2/4 327/2/4 329/2/4
f 329/2/4 328/2/4 330/2/4
f 318/2/4 325/2/4 331/2/4
f 323/1/4 324/1/4 331/1/4
f 324/1/4 318/1/4 331/1/4
f 331/2/4 325/2/4 332/2/4
f 330/2/4 328/2/4 333/2/4
f 333/2/4 328/2/4 334/2/4
f 331/1/4 332/1/4 335/1/4
f 323/1/4 331/1/4 335/1/4
f 335/1/4 332/1/4 336/1/4
f 323/1/4 335/1/4 337/1/4
f 337/1/4 335/1/4 338/1/4
f 323/1/4 337/1/4 339/1/4
f 339/1/4 337/1/4 340/1/4
f 341/2/4 342/2/4 345/2/4
f 345/2/4 342/2/4 346/2/4
f 343/2/4 344/2/4 347/2/4
f 347/2/4 344/2/4 348/2/4
f 349/2/4 350/2/4 351/2/4
f 351/2/4 350/2/4 352/2/4
f 355/1/5 354/1/5 353/1/5
f 356/1/5 354/1/5 355/1/5
f 359/1/5 358/1/5 357/1/5
f 360/1/5 358/1/5 359/1/5
f 363/1/5 362/1/5 361/1/5
f 364/1/5 362/1/5 363/1/5
f 367/1/5 366/1/5 365/1/5
f 368/1/5 366/1/5 367/1/5
f 371/2/5 370/2/5 369/2/5
f 372/2/5 370/2/5 371/2/5
f 377/2/5 374/2/5 373/2/5
f 378/2/5 374/2/5 377/2/5
f 379/2/5 376/2/5 375/2/5
f 380/2/5 376/2/5 379/2/5
f 383/2/5 382/2/5 381/2/5
f 384/2/5 382/2/5 383/2/5
f 387/2/5 386/2/5 385/2/5
f 388/2/5 386/2/5 387/2/5
f 389/2/5 388/2/5 387/2/5
f 390/2/5 388/2/5 389/2/5
f 393/2/5 392/2/5 391/2/5
f 394/2/5 392/2/5 393/2/5
f 395/2/5 394/2/5 393/2/5
f 396/2/5 394/2/5 395/2/5
f 399/2/5 398/2/5 397/2/5
f 400/2/5 398/2/5 399/2/5
f 403/2/5 402/2/5 401/2/5
f 404/2/5 402/2/5 403/2/5
f 407/2/5 406/2/5 405/2/5
f 408/2/5 406/2/5 407/2/5
f 413/2/5 410/2/5 409/2/5
f 414/2/5 410/2/5 413/2/5
f 417/2/5 416/2/5 415/2/5
f 418/2/5 416/2/5 417/2/5
f 419/2/5 412/2/5 411/2/5
f 420/2/5 412/2/5 419/2/5
f 423/2/5 422/2/5 421/2/5
f 424/2/5 422/2/5 423/2/5
f 429/2/5 426/2/5 425/2/5
f 430/2/5 426/2/5 429/2/5
f 431/2/5 428/2/5 427/2/5
f 432/2/5 428/2/5 431/2/5
f 435/2/5 434/2/5 433/2/5
f 436/2/5 434/2/5 435/2/5
f 437/1/6 438/1/6 439/1/6
f 439/1/6 438/1/6 440/1/6
f 441/1/6 442/1/6 443/1/6
f 443/1/6 442/1/6 444/1/6
f 445/2/6 446/2/6 447/2/6
f 447/2/6 446/2/6 448/2/6
f 449/2/6 450/2/6 454/2/6
f 454/2/6 450/2/6 455/2/6
f 456/2/6 457/2/6 458/2/6
f 458/2/6 457/2/6 459/2/6
f 451/2/6 452/2/6 460/2/6
f 452/1/6 453/1/6 461/1/6
f 460/2/6 452/2/6 461/2/6
f 461/1/6 453/1/6 462/1/6
f 463/2/6 464/2/6 465/2/6
f 465/2/6 464/2/6 466/2/6
f 467/2/6 468/2/6 469/2/6
f 469/2/6 468/2/6 470/2/6
f 471/2/6 472/2/6 473/2/6
f 473/2/6 472/2/6 474/2/6
f 477/2/6 478/2/6 479/2/6
f 479/2/6 478/2/6 480/2/6
f 475/2/6 476/2/6 481/2/6
f 481/2/6 476/2/6 482/2/6
f 483/2/6 484/2/6 485/2/6
f 485/2/6 484/2/6 486/2/6
f 485/2/6 486/2/6 487/2/6
f 487/2/6 486/2/6 488/2/6
f 489/2/6 490/2/6 491/2/6
f 491/2/6 490/2/6 492/2/6
f 491/2/6 492/2/6 493/2/6
f 493/2/6 492/2/6 494/2/6
f 495/2/6 496/2/6 499/2/6
f 499/2/6 496/2/6 500/2/6
f 497/2/6 498/2/6 501/2/6
f 501/2/6 498/2/6 502/2/6
f 503/2/6 504/2/6 507/2/6
f 507/2/6 504/2/6 508/2/6
f 509/2/6 510/2/6 511/2/6
f 511/2/6 510/2/6 512/2/6
f 505/2/6 506/2/6 513/2/6
f 513/2/6 506/2/6 514/2/6
f 515/2/6 516/2/6 518/2/6
f 517/2/6 518/2/6 519/2/6
f 518/2/6 516/2/6 520/2/6
f 519/2/6 518/2/6 520/2/6
f 520/2/6 516/2/6 521/2/6
f 521/2/6 516/2/6 522/2/6
